<?xml version="1.0" encoding="utf-8"?>
<!-- Generator: Adobe Illustrator 16.0.0, SVG Export Plug-In . SVG Version: 6.00 Build 0)  -->
<!DOCTYPE svg PUBLIC "-//W3C//DTD SVG 1.1//EN" "http://www.w3.org/Graphics/SVG/1.1/DTD/svg11.dtd">
<svg version="1.1" id="Calque_1" xmlns="http://www.w3.org/2000/svg" xmlns:xlink="http://www.w3.org/1999/xlink" x="0px" y="0px"
	 width="203.853px" height="112.333px" viewBox="0 0 203.853 112.333" enable-background="new 0 0 203.853 112.333"
	 xml:space="preserve">
<g id="c6QKza.tif">
	<g>
		<path fill-rule="evenodd" clip-rule="evenodd" fill="#FFFFFF" d="M50.227,95.339c-11.496,0.204-21.525-7.117-24.212-17.779
			c-2.936-11.66,6.032-24.018,17.562-24.12c4.258-0.039,8.029,1.411,11.109,4.372c1.128,1.083,1.461,0.925,2.584-0.24
			c2.544-2.639,4.573-5.288,5.075-9.105c0.241-1.834,1.823-3.311,3.385-4.481c0.967-0.727,2.048-0.929,2.904,0.122
			c0.783,0.966,0.37,1.883-0.466,2.627c-1.027,0.916-1.966,1.903-2.418,3.238c-0.304,0.897-1.066,2.056,0.121,2.638
			c1.094,0.539,2.213,0.286,2.81-1.211c0.723-1.82,2.063-3.148,3.977-3.867c1.123-0.423,1.998-0.264,2.562,0.763
			c0.602,1.085,0.027,1.873-0.847,2.548c-3.211,2.496-3.253,2.56-0.462,5.472c2.802,2.921,2.812,6.532,2.812,10.198
			C76.711,79.535,67.25,91.757,54.8,94.724C53.313,95.08,51.753,95.141,50.227,95.339z M50.137,91.599
			c1.436-0.192,2.91-0.235,4.304-0.597c11.689-3.024,20.263-15.372,18.3-29.146c-0.354-2.519-2.145-4.151-4.56-4.961
			c-2.424-0.813-4.668-0.396-6.624,1.271c-2.73,2.329-2.578,5.283-2.076,8.501c0.757,4.865-1.035,8.974-4.752,12.099
			c-3.467,2.908-7.427,3.625-11.725,1.878c-4.162-1.692-7.015-6.236-6.476-10.368c0.528-4.068,3.863-7.527,7.801-8
			c1.411-0.17,2.973-0.065,3.201,1.685c0.191,1.464-0.973,1.88-2.345,1.957c-2.303,0.127-3.921,1.312-4.645,3.565
			c-0.726,2.275-0.286,4.28,1.398,6.018c4.316,4.455,11.723,2.231,13.58-4.086c2.014-6.854-3.727-14.08-11.33-14.261
			c-9.843-0.232-17.383,10.536-14.309,20.433C32.549,86.173,40.698,91.77,50.137,91.599z"/>
	</g>
</g>
<g>
	<path fill="#FFFFFF" d="M21.797,49.282c-0.359,1.079,0.222,2.243,1.299,2.604c1.08,0.359,2.246-0.224,2.607-1.305
		c0.979-2.936,4.168-4.529,7.105-3.548c0.539,0.18,1.103,0.124,1.572-0.112c0.471-0.235,0.852-0.649,1.033-1.189
		c0.36-1.079-0.221-2.246-1.301-2.604C29.019,41.428,23.496,44.188,21.797,49.282z"/>
	<path fill="#FFFFFF" d="M13.7,46.582c-0.357,1.077,0.227,2.242,1.301,2.603c1.081,0.358,2.245-0.222,2.607-1.301
		c2.471-7.403,10.503-11.414,17.904-8.945c0.538,0.181,1.101,0.125,1.57-0.11c0.471-0.236,0.854-0.651,1.034-1.189
		c0.359-1.08-0.224-2.247-1.302-2.604C27.259,31.843,16.891,37.023,13.7,46.582z"/>
	<path fill="#FFFFFF" d="M39.831,25.999C25.293,21.148,9.518,29.027,4.667,43.564c-0.359,1.08,0.224,2.246,1.302,2.607
		c1.08,0.358,2.244-0.226,2.606-1.303c2-5.999,6.219-10.861,11.877-13.687c5.656-2.825,12.077-3.28,18.072-1.277
		c0.541,0.18,1.104,0.125,1.574-0.113c0.471-0.233,0.851-0.65,1.032-1.188C41.491,27.525,40.911,26.36,39.831,25.999z"/>
</g>
<g>
	<g>
		<g>
			<path fill="#FFFFFF" d="M193.456,12.894h-34.18c-3.217,0-5.834,2.618-5.834,5.836v72.436c0,3.218,2.617,5.836,5.834,5.836h34.18
				c3.219,0,5.836-2.618,5.836-5.836V18.729C199.292,15.512,196.675,12.894,193.456,12.894z M176.368,92.66
				c-1.158,0-2.102-0.941-2.102-2.1s0.943-2.1,2.102-2.1c1.156,0,2.1,0.941,2.1,2.1S177.524,92.66,176.368,92.66z M156.059,22.759
				h40.618v61.327h-40.618V22.759z M159.276,15.512h34.18c1.775,0,3.221,1.443,3.221,3.218v1.412h-40.618v-1.412
				C156.059,16.955,157.503,15.512,159.276,15.512z M156.059,91.165v-4.462h17.598c-1.215,0.856-2.006,2.266-2.006,3.857
				c0,1.571,0.771,2.965,1.957,3.822h-14.332C157.503,94.383,156.059,92.939,156.059,91.165z M193.456,94.383h-14.328
				c1.184-0.857,1.957-2.251,1.957-3.822c0-1.592-0.795-3.001-2.006-3.857h17.598v4.462
				C196.677,92.939,195.233,94.383,193.456,94.383z"/>
		</g>
	</g>
	<g>
		<path fill="#FFFFFF" d="M165.517,55.241c0-0.084,0.084-0.168,0.18-0.168h3.533c0.707,0,1.294,0.252,1.773,0.743
			c0.479,0.491,0.719,1.102,0.719,1.833v0.096c0,0.599-0.168,1.113-0.516,1.533c-0.347,0.419-0.767,0.719-1.258,0.886
			c-0.083,0.024-0.119,0.072-0.096,0.156c0.275,1.197,1.042,1.929,2.145,1.988c0.107,0.012,0.155,0.072,0.155,0.18v0.946
			c0,0.12-0.06,0.18-0.167,0.18c-0.923-0.012-1.713-0.288-2.348-0.851c-0.636-0.562-1.03-1.342-1.21-2.312
			c-0.013-0.084-0.072-0.132-0.156-0.132h-1.149c-0.084,0-0.12,0.048-0.12,0.132v2.91c0,0.096-0.084,0.168-0.168,0.168h-1.138
			c-0.12,0-0.18-0.06-0.18-0.168V55.241z M167.002,59.051c0,0.084,0.036,0.132,0.12,0.132h1.652c0.827,0,1.354-0.527,1.354-1.354
			v-0.084c0-0.851-0.526-1.354-1.401-1.354h-1.604c-0.084,0-0.12,0.048-0.12,0.132V59.051z"/>
		<path fill="#FFFFFF" d="M172.562,60.272c0-0.827,0.239-1.497,0.707-2.001c0.467-0.515,1.042-0.767,1.725-0.767
			c0.623,0,1.162,0.228,1.629,0.671c0.036,0.036,0.107,0.024,0.12-0.023l0.096-0.42c0.023-0.083,0.084-0.131,0.191-0.131h0.935
			c0.084,0,0.168,0.071,0.168,0.167v5.594c0,0.096-0.084,0.168-0.168,0.168h-1.138c-0.108,0-0.168-0.06-0.168-0.168v-0.335
			c0-0.06-0.084-0.096-0.132-0.048c-0.455,0.431-0.982,0.646-1.569,0.646c-0.707,0-1.294-0.251-1.736-0.767
			c-0.443-0.515-0.659-1.174-0.659-1.988V60.272z M174,60.835c0,0.958,0.539,1.569,1.401,1.569c0.407,0,0.778-0.144,1.102-0.419
			c0.108-0.084,0.156-0.192,0.156-0.323v-2.181c0-0.132-0.048-0.251-0.156-0.335c-0.311-0.275-0.683-0.407-1.102-0.407
			c-0.862,0-1.401,0.61-1.401,1.569V60.835z"/>
		<path fill="#FFFFFF" d="M179.632,55.469c0.299-0.299,0.778-0.299,1.078,0c0.299,0.288,0.299,0.791,0,1.078
			c-0.288,0.288-0.791,0.288-1.09,0C179.332,56.26,179.332,55.757,179.632,55.469z M179.44,57.769c0-0.107,0.06-0.167,0.167-0.167
			h1.126c0.108,0,0.168,0.06,0.168,0.167v5.594c0,0.108-0.06,0.168-0.168,0.168h-1.126c-0.107,0-0.167-0.06-0.167-0.168V57.769z"/>
		<path fill="#FFFFFF" d="M182.221,57.769c0-0.107,0.06-0.167,0.167-0.167h0.959c0.083,0,0.144,0.035,0.155,0.107l0.096,0.467
			c0.012,0.061,0.096,0.084,0.144,0.024c0.443-0.468,0.994-0.695,1.665-0.695c1.294,0,2.049,0.851,2.049,2.324v3.533
			c0,0.108-0.061,0.168-0.18,0.168h-1.126c-0.084,0-0.168-0.072-0.168-0.168v-3.461c0-0.743-0.348-1.114-1.054-1.114
			c-0.407,0-0.767,0.132-1.078,0.407c-0.108,0.096-0.168,0.216-0.168,0.348v3.82c0,0.108-0.06,0.168-0.168,0.168h-1.126
			c-0.107,0-0.167-0.06-0.167-0.168V57.769z"/>
		<path fill="#FFFFFF" d="M164.253,71.414c0-0.827,0.239-1.497,0.707-2.001c0.467-0.515,1.042-0.767,1.725-0.767
			c0.623,0,1.162,0.228,1.629,0.671c0.036,0.036,0.107,0.024,0.12-0.023l0.096-0.42c0.023-0.083,0.084-0.131,0.191-0.131h0.935
			c0.084,0,0.168,0.071,0.168,0.167v5.594c0,0.096-0.084,0.168-0.168,0.168h-1.138c-0.108,0-0.168-0.06-0.168-0.168v-0.335
			c0-0.06-0.084-0.096-0.132-0.048c-0.455,0.431-0.982,0.646-1.569,0.646c-0.707,0-1.294-0.251-1.736-0.767
			c-0.443-0.515-0.659-1.174-0.659-1.988V71.414z M165.69,71.977c0,0.958,0.539,1.569,1.401,1.569c0.407,0,0.778-0.144,1.102-0.419
			c0.108-0.084,0.156-0.192,0.156-0.323v-2.181c0-0.132-0.048-0.251-0.156-0.335c-0.311-0.275-0.683-0.407-1.102-0.407
			c-0.862,0-1.401,0.61-1.401,1.569V71.977z"/>
		<path fill="#FFFFFF" d="M171.131,66.383c0-0.107,0.06-0.168,0.167-0.168h1.126c0.108,0,0.168,0.061,0.168,0.168v8.121
			c0,0.108-0.06,0.168-0.168,0.168h-1.126c-0.107,0-0.167-0.06-0.167-0.168V66.383z"/>
		<path fill="#FFFFFF" d="M173.659,71.39c0-0.826,0.264-1.485,0.778-2c0.516-0.516,1.187-0.778,2.013-0.778
			c0.803,0,1.461,0.251,1.977,0.767c0.515,0.515,0.767,1.186,0.767,2.012v0.563c0,0.119-0.061,0.18-0.18,0.18h-3.797
			c-0.072,0-0.108,0.035-0.108,0.119c0.084,0.827,0.695,1.342,1.569,1.342c0.396,0,0.73-0.12,1.03-0.371
			c0.071-0.072,0.144-0.072,0.228-0.012l0.79,0.61c0.097,0.084,0.097,0.18-0.012,0.264c-0.539,0.479-1.222,0.719-2.036,0.719
			c-0.862,0-1.581-0.264-2.156-0.791c-0.575-0.526-0.862-1.186-0.862-1.988V71.39z M175.12,71.055
			c-0.012,0.084,0.024,0.132,0.12,0.132h2.372c0.096,0,0.132-0.048,0.119-0.132c-0.096-0.803-0.539-1.234-1.27-1.234
			C175.684,69.82,175.229,70.228,175.12,71.055z"/>
		<path fill="#FFFFFF" d="M180.273,68.91c0-0.107,0.06-0.167,0.167-0.167h0.959c0.083,0,0.144,0.035,0.155,0.107l0.096,0.383
			c0.012,0.048,0.084,0.072,0.132,0.024c0.359-0.396,0.826-0.599,1.413-0.599c0.396,0,0.755,0.107,1.091,0.323
			c0.083,0.071,0.096,0.155,0.048,0.239l-0.503,0.791c-0.049,0.084-0.132,0.107-0.24,0.048c-0.191-0.108-0.396-0.156-0.61-0.156
			c-0.42,0-0.791,0.144-1.091,0.42c-0.107,0.083-0.155,0.215-0.155,0.371v3.809c0,0.108-0.06,0.168-0.168,0.168h-1.126
			c-0.107,0-0.167-0.06-0.167-0.168V68.91z"/>
		<path fill="#FFFFFF" d="M185.485,67.258c0-0.097,0.084-0.18,0.18-0.18h1.126c0.107,0,0.167,0.06,0.167,0.18v1.365
			c0,0.084,0.048,0.12,0.132,0.12h1.27c0.108,0,0.168,0.06,0.168,0.167v0.6c0,0.119-0.06,0.18-0.168,0.18h-1.27
			c-0.084,0-0.132,0.035-0.132,0.119v3.187c0,0.348,0.288,0.551,0.623,0.551c0.216,0,0.42-0.06,0.611-0.18
			c0.084-0.048,0.203-0.012,0.239,0.072l0.419,0.706c0.072,0.12,0.048,0.204-0.071,0.252c-0.468,0.251-0.958,0.371-1.474,0.371
			c-1.186,0-1.82-0.551-1.82-1.593v-3.366c0-0.084-0.036-0.119-0.12-0.119h-0.623c-0.107,0-0.167-0.061-0.167-0.18v-0.6
			c0-0.107,0.06-0.167,0.167-0.167h0.623c0.084,0,0.12-0.036,0.12-0.12V67.258z"/>
	</g>
	<path fill="#FFFFFF" d="M176.353,27.738c-4.797,0-8.68,3.888-8.68,8.681c0,4.795,3.883,8.68,8.68,8.68
		c4.795,0,8.68-3.885,8.68-8.68C185.032,31.626,181.147,27.738,176.353,27.738L176.353,27.738z M176.353,31.56
		c2.686,0,4.859,2.175,4.859,4.859c0,2.686-2.174,4.862-4.859,4.862s-4.861-2.177-4.861-4.862
		C171.491,33.734,173.667,31.56,176.353,31.56L176.353,31.56z M171.86,45.944c-0.51,0.004-0.988,0.306-1.193,0.804
		c-0.277,0.664,0.037,1.427,0.701,1.702c0.666,0.274,1.428-0.041,1.703-0.705c0.273-0.664-0.041-1.427-0.707-1.703
		C172.198,45.973,172.026,45.943,171.86,45.944L171.86,45.944z M180.845,45.944c-0.168-0.001-0.342,0.028-0.506,0.098
		c-0.666,0.276-0.98,1.039-0.705,1.703c0.273,0.664,1.037,0.979,1.701,0.705c0.664-0.275,0.98-1.038,0.703-1.702
		C181.833,46.25,181.353,45.948,180.845,45.944L180.845,45.944z M176.353,46.836c-0.719,0-1.303,0.583-1.303,1.303
		c0,0.719,0.584,1.302,1.303,1.302s1.303-0.583,1.303-1.302C177.655,47.419,177.071,46.836,176.353,46.836L176.353,46.836z
		 M176.353,46.836"/>
</g>
<g>
	<g>
		
			<line fill="none" stroke="#FFFFFF" stroke-width="2" stroke-linecap="round" stroke-miterlimit="10" x1="95.952" y1="54.947" x2="132.472" y2="54.859"/>
		<g>
			<polygon fill="#FFFFFF" points="125.865,63.056 124.497,61.594 131.705,54.863 124.465,48.166 125.826,46.698 134.641,54.856 			
				"/>
		</g>
	</g>
</g>
<path fill="#FFFFFF" d="M-560.875-325.884c0,12.068-10.572,21.851-23.613,21.851h-44.27c-13.041,0-23.613-9.783-23.613-21.851
	v-47.794c0-12.068,10.572-21.851,23.613-21.851h44.27c13.041,0,23.613,9.783,23.613,21.851V-325.884z"/>
<g>
	<g id="c6QKza.tif_1_">
		<g>
			<path fill-rule="evenodd" clip-rule="evenodd" fill="#2EAAD3" d="M-599.916-320.487c-9.843,0.175-18.43-6.094-20.729-15.222
				c-2.514-9.984,5.164-20.563,15.036-20.651c3.646-0.034,6.874,1.208,9.512,3.743c0.965,0.927,1.251,0.792,2.212-0.206
				c2.178-2.259,3.915-4.527,4.345-7.796c0.207-1.57,1.562-2.834,2.898-3.836c0.828-0.622,1.753-0.795,2.486,0.104
				c0.671,0.827,0.317,1.611-0.398,2.249c-0.88,0.784-1.683,1.629-2.069,2.772c-0.262,0.769-0.914,1.76,0.104,2.258
				c0.936,0.461,1.895,0.246,2.405-1.036c0.618-1.558,1.767-2.696,3.404-3.311c0.961-0.362,1.71-0.226,2.194,0.652
				c0.515,0.93,0.022,1.604-0.725,2.182c-2.75,2.137-2.786,2.192-0.396,4.685c2.398,2.501,2.408,5.593,2.408,8.731
				c-0.012,11.151-8.112,21.614-18.771,24.155C-597.274-320.708-598.609-320.657-599.916-320.487z M-599.993-323.689
				c1.229-0.164,2.491-0.201,3.684-0.511c10.009-2.59,17.35-13.161,15.668-24.954c-0.304-2.157-1.836-3.554-3.903-4.247
				c-2.075-0.697-3.997-0.34-5.671,1.088c-2.338,1.995-2.207,4.524-1.777,7.278c0.647,4.166-0.887,7.683-4.068,10.359
				c-2.969,2.49-6.359,3.104-10.038,1.607c-3.564-1.449-6.006-5.339-5.545-8.877c0.452-3.483,3.308-6.444,6.679-6.85
				c1.208-0.145,2.545-0.055,2.74,1.443c0.165,1.252-0.832,1.609-2.007,1.675c-1.971,0.108-3.357,1.124-3.976,3.053
				c-0.621,1.947-0.246,3.665,1.196,5.152c3.695,3.814,10.036,1.91,11.627-3.498c1.724-5.869-3.19-12.056-9.7-12.209
				c-8.427-0.199-14.883,9.021-12.25,17.493C-615.052-328.334-608.075-323.542-599.993-323.689z"/>
		</g>
	</g>
	<g>
		<path fill="#2EAAD3" d="M-621.257-357.919c-0.309,0.924,0.188,1.92,1.111,2.23c0.925,0.308,1.924-0.191,2.232-1.116
			c0.839-2.513,3.568-3.878,6.085-3.038c0.461,0.153,0.942,0.106,1.345-0.097c0.403-0.202,0.729-0.556,0.885-1.019
			c0.309-0.923-0.189-1.922-1.114-2.23C-615.073-364.644-619.804-362.28-621.257-357.919z"/>
		<path fill="#2EAAD3" d="M-628.189-360.23c-0.307,0.921,0.193,1.919,1.113,2.228c0.925,0.307,1.922-0.19,2.232-1.114
			c2.115-6.337,8.992-9.772,15.328-7.658c0.462,0.154,0.943,0.107,1.346-0.095c0.403-0.203,0.731-0.557,0.885-1.018
			c0.308-0.925-0.191-1.924-1.114-2.23C-616.581-372.85-625.458-368.415-628.189-360.23z"/>
		<path fill="#2EAAD3" d="M-605.818-377.853c-12.445-4.154-25.951,2.592-30.105,15.038c-0.309,0.925,0.191,1.923,1.114,2.232
			c0.925,0.307,1.921-0.192,2.231-1.115c1.713-5.136,5.324-9.299,10.169-11.718c4.843-2.419,10.34-2.808,15.473-1.093
			c0.464,0.154,0.945,0.106,1.348-0.097c0.403-0.2,0.729-0.557,0.885-1.018C-604.396-376.546-604.894-377.544-605.818-377.853z"/>
	</g>
</g>
</svg>
